PERFORMER "Marty Friedman"
TITLE "LoudSpeaker"
FILE "CDImage.ape" WAVE
  TRACK 01 AUDIO
    TITLE "Elixir"
    PERFORMER "Marty Friedman"
    INDEX 01 00:00:00
  TRACK 02 AUDIO
    TITLE "Street Demon"
    PERFORMER "Marty Friedman"
    INDEX 01 04:35:37
  TRACK 03 AUDIO
    TITLE "Black Orchid"
    PERFORMER "Marty Friedman"
    INDEX 01 08:05:58
  TRACK 04 AUDIO
    TITLE "Paradise Express"
    PERFORMER "Marty Friedman"
    INDEX 01 12:36:58
  TRACK 05 AUDIO
    TITLE "Sekaini Hitotu Dakeno Hana"
    PERFORMER "Marty Friedman"
    INDEX 01 17:24:25
  TRACK 06 AUDIO
    TITLE "Glycerine Flesh"
    PERFORMER "Marty Friedman"
    INDEX 01 21:40:54
  TRACK 07 AUDIO
    TITLE "Stigmata Addiction"
    PERFORMER "Marty Friedman"
    INDEX 01 26:55:54
  TRACK 08 AUDIO
    TITLE "Viper"
    PERFORMER "Marty Friedman"
    INDEX 01 34:03:50
  TRACK 09 AUDIO
    TITLE "Static Rain"
    PERFORMER "Marty Friedman"
    INDEX 01 37:08:73
  TRACK 10 AUDIO
    TITLE "Coloreas Mi Vida"
    PERFORMER "Marty Friedman"
    INDEX 00 39:59:74
    INDEX 01 40:00:53
  TRACK 11 AUDIO
    TITLE "Devil Take Tomorrow"
    PERFORMER "Marty Friedman"
    INDEX 01 43:14:20
